<svg width="14" height="14" viewBox="0 0 14 14" fill="none" xmlns="http://www.w3.org/2000/svg">
<path d="M12.5794 0.919525C13.6959 2.03601 13.6959 3.8462 12.5794 4.96269C12.1191 5.42297 11.5409 5.69346 10.9421 5.7742C9.6023 5.95484 7.97607 5.85976 7.02012 6.81572C6.06415 7.77168 6.15918 9.39795 5.9785 10.7378C5.89774 11.3366 5.62721 11.9149 5.16691 12.3752C4.05042 13.4916 2.24024 13.4916 1.12375 12.3752C0.0072607 11.2587 0.0072607 9.44848 1.12375 8.33199C1.58405 7.87169 2.16225 7.60116 2.76115 7.5204C4.10096 7.33972 5.72722 7.43475 6.68319 6.47879C7.63914 5.52283 7.54406 3.8966 7.7247 2.55679C7.80544 1.95795 8.07593 1.3798 8.53621 0.919525C9.6527 -0.196964 11.4629 -0.196964 12.5794 0.919525Z" fill="#0A0F13"/>
<path d="M12.5794 12.3752C11.4629 13.4916 9.6527 13.4916 8.53621 12.3752C8.07593 11.9149 7.80544 11.3367 7.7247 10.7379C7.54406 9.39808 7.63914 7.77185 6.68319 6.81589C5.72722 5.85993 4.10096 5.95496 2.76115 5.77428C2.16225 5.69352 1.58405 5.42298 1.12375 4.96269C0.00726129 3.8462 0.00726166 2.03601 1.12375 0.919524C2.24024 -0.196964 4.05042 -0.196964 5.16691 0.919525C5.62721 1.37982 5.89774 1.95803 5.9785 2.55692C6.15918 3.89673 6.06415 5.523 7.02012 6.47896C7.97607 7.43492 9.6023 7.33984 10.9421 7.52048C11.5409 7.60121 12.1191 7.87171 12.5794 8.33199C13.6959 9.44848 13.6959 11.2587 12.5794 12.3752Z" fill="#0A0F13"/>
</svg>
