<svg width="12" height="12" viewBox="0 0 12 12" fill="none" xmlns="http://www.w3.org/2000/svg">
<path d="M6.00195 0C7.56534 0 7.76611 0.00663303 8.3877 0.0361328C9.02258 0.0641569 9.46719 0.167505 9.86035 0.319336C10.2745 0.475368 10.652 0.721323 10.9639 1.03711L10.791 1.21289L10.9668 1.04004L11.0811 1.1582C11.3442 1.44542 11.5479 1.77917 11.6865 2.14551C11.8387 2.53712 11.9427 2.98432 11.9707 3.61914C11.9979 4.23859 12 4.43944 12 6.00098C12 7.56454 11.993 7.76475 11.9658 8.38379C11.9378 9.01924 11.8346 9.46403 11.6826 9.85742C11.3586 10.6954 10.6956 11.3585 9.85742 11.6826C9.46562 11.835 9.01819 11.9378 8.38281 11.9658C7.76364 11.9931 7.56379 12 6 12C4.43622 12 4.23629 11.9931 3.61719 11.9658C2.98188 11.9378 2.53692 11.8345 2.14355 11.6826C1.72911 11.5264 1.35199 11.28 1.04004 10.9639L1.21387 10.7891L1.03809 10.9619L1.03906 10.9639C0.722612 10.6519 0.47605 10.2757 0.317383 9.85645C0.165339 9.46504 0.0621828 9.01824 0.0341797 8.38379C0.00698275 7.76475 0 7.56454 0 6.00098C4.77443e-07 4.4381 0.00663226 4.23759 0.0361328 3.61621C0.0641658 2.98134 0.167454 2.53675 0.319336 2.14355C0.456107 1.78085 0.661668 1.44617 0.922852 1.15918L1.03711 1.04102L1.21387 1.21289L1.04004 1.03711C1.35238 0.718488 1.72772 0.475434 2.14551 0.317383C2.53699 0.165366 2.98435 0.0621929 3.61914 0.0341797C4.23825 0.0069894 4.43837 8.2604e-07 6.00195 0ZM6 3.1582C4.43119 3.15837 3.15837 4.43111 3.1582 6C3.1582 7.56903 4.43109 8.84261 6 8.84277C7.56914 8.84277 8.84277 7.56914 8.84277 6C8.84261 4.43101 7.56903 3.1582 6 3.1582ZM9.47363 1.2627C8.77646 1.26291 8.21119 1.82802 8.21094 2.52539C8.21094 3.22283 8.77628 3.78884 9.47363 3.78906C10.1713 3.78906 10.7373 3.22299 10.7373 2.52539C10.7371 1.82785 10.1711 1.2627 9.47363 1.2627Z" fill="#EFF3F5"/>
</svg>
