<svg width="14" height="14" viewBox="0 0 14 14" fill="none" xmlns="http://www.w3.org/2000/svg">
<path d="M1.40623 0.000488281C1.21088 0.000709761 1.01755 0.0408516 0.838852 0.119629C0.660171 0.198406 0.499871 0.313562 0.368149 0.45752C0.236379 0.601584 0.135612 0.771684 0.0732269 0.956543C0.0108603 1.14138 -0.0117441 1.33749 0.00584412 1.53174C0.236926 3.70315 0.977383 5.78989 2.16698 7.62256C3.24771 9.31987 4.6899 10.7588 6.39061 11.8374C8.21858 13.0204 10.2989 13.7597 12.4648 13.9946C12.6601 14.0122 12.8572 13.989 13.043 13.9263C13.2286 13.8636 13.3995 13.7626 13.5439 13.6304C13.6883 13.4981 13.8033 13.3369 13.8818 13.1577C13.9603 12.9785 14.0008 12.7849 14 12.5894V10.4819C14.0086 10.1374 13.8892 9.80152 13.666 9.53857C13.4428 9.27573 13.1309 9.10334 12.789 9.05518C12.1132 8.96622 11.4492 8.8018 10.8105 8.56396C10.5586 8.46951 10.2846 8.44838 10.0215 8.50439C9.75833 8.56045 9.51651 8.69155 9.32518 8.88037L8.43163 9.77197C6.66938 8.77191 5.21005 7.31588 4.20799 5.55713L5.10252 4.66455C5.29151 4.47369 5.42137 4.23263 5.47752 3.97021C5.53367 3.7075 5.51364 3.43358 5.41893 3.18213C5.18068 2.54485 5.01489 1.88285 4.92577 1.2085C4.87795 0.870897 4.7092 0.561671 4.45018 0.339355C4.19125 0.117166 3.86 -0.00279833 3.51854 0.000488281H1.40623Z" fill="#0A0F13"/>
</svg>
