<svg width="34" height="34" viewBox="0 0 34 34" fill="none" xmlns="http://www.w3.org/2000/svg">
<ellipse cx="25.3311" cy="12.4171" rx="4.13882" ry="6.43382" transform="rotate(-46.9291 25.3311 12.4171)" fill="#0A0F13"/>
<path d="M10.0918 15.2563C11.3942 13.8631 13.6978 13.7153 16.1289 14.6343L13.7988 16.5591C12.5369 17.9095 13.2155 20.595 15.3145 22.5571C17.4135 24.5191 20.1381 25.0148 21.4004 23.6646L23.4531 21.4956C24.5225 23.8508 24.5255 26.1482 23.2275 27.5366C21.1496 29.7588 16.5246 28.8112 12.8975 25.4204C9.27034 22.0295 8.0141 17.4789 10.0918 15.2563Z" fill="#0A0F13"/>
<path d="M16.275 21.6601C17.9521 23.2279 20.0905 23.6658 21.0512 22.6382C21.706 21.7269 23.3156 19.5045 24.5156 17.9045C21.7156 16.3045 20.0156 14.2378 19.5156 13.4045L14.9777 16.9605C14.0171 17.9882 14.5979 20.0922 16.275 21.6601Z" fill="#0A0F13"/>
<path d="M12.5156 26.9045C12.0156 26.5711 10.9156 25.7045 10.5156 24.9045L7.51562 28.4045L6.98243 29.2043C6.39067 30.0919 7.41419 31.1653 8.32897 30.6165L9.51562 29.9045L12.5156 26.9045Z" fill="#0A0F13"/>
</svg>
