<svg aria-hidden="true" style="position: absolute; width: 0; height: 0; overflow: hidden;" version="1.1" xmlns="http://www.w3.org/2000/svg" xmlns:xlink="http://www.w3.org/1999/xlink">
<defs>
<symbol id="icon-arrow-down" viewBox="0 0 20 32">
<path d="M9.846 0.615c-1.020 0-1.846 0.827-1.846 1.846v19.925l-4.188-4.5c-0.695-0.746-1.862-0.788-2.608-0.094s-0.789 1.864-0.094 2.611l8.736 9.382 8.736-9.382c0.695-0.746 0.652-1.916-0.094-2.611s-1.914-0.652-2.608 0.094l-4.188 4.5v-19.925c0-1.020-0.827-1.846-1.846-1.846z"></path>
</symbol>
<symbol id="icon-arrow-left" viewBox="0 0 52 32">
<path stroke-linejoin="miter" stroke-linecap="butt" stroke-miterlimit="4" stroke-width="5.3333" d="M77.334 15.999l-73.335 0M3.999 16l13.317 13.317M3.999 16l13.317-13.317"></path>
</symbol>
<symbol id="icon-arrow-right" viewBox="0 0 52 32">
<path fill="none" stroke="#eff3f5" style="stroke: var(--color1, #eff3f5)" stroke-linejoin="miter" stroke-linecap="butt" stroke-miterlimit="4" stroke-width="5.3333" d="M-25.334 15.999l73.335 0M48.001 16l-13.317 13.317M48.001 16l-13.317-13.317"></path>
</symbol>
<symbol id="icon-Clover" viewBox="0 0 32 32">
<path d="M28.753 2.102c2.552 2.552 2.552 6.69 0 9.242-1.052 1.052-2.374 1.67-3.742 1.855-3.062 0.413-6.779 0.196-8.965 2.381s-1.968 5.902-2.381 8.965c-0.185 1.369-0.803 2.691-1.855 3.743-2.552 2.552-6.69 2.552-9.242 0s-2.552-6.69 0-9.242c1.052-1.052 2.374-1.67 3.743-1.855 3.062-0.413 6.78-0.196 8.965-2.381s1.968-5.902 2.381-8.965c0.185-1.369 0.803-2.69 1.855-3.742 2.552-2.552 6.69-2.552 9.242 0z"></path>
<path d="M28.753 28.286c-2.552 2.552-6.69 2.552-9.242 0-1.052-1.052-1.67-2.374-1.855-3.742-0.413-3.062-0.196-6.78-2.381-8.965s-5.902-1.968-8.965-2.381c-1.369-0.185-2.691-0.803-3.743-1.855-2.552-2.552-2.552-6.69 0-9.242s6.69-2.552 9.242 0c1.052 1.052 1.67 2.374 1.855 3.743 0.413 3.062 0.196 6.78 2.381 8.965s5.902 1.968 8.965 2.381c1.369 0.185 2.69 0.803 3.742 1.855 2.552 2.552 2.552 6.69 0 9.242z"></path>
</symbol>
<symbol id="icon-facebook" viewBox="0 0 16 32">
<path fill="#eff3f5" style="fill: var(--color1, #eff3f5)" d="M13.079 5.313h2.921v-5.088c-0.504-0.069-2.237-0.225-4.256-0.225-4.212 0-7.097 2.649-7.097 7.519v4.481h-4.648v5.688h4.648v14.312h5.698v-14.311h4.46l0.708-5.688h-5.169v-3.919c0.001-1.644 0.444-2.769 2.734-2.769z"></path>
</symbol>
<symbol id="icon-instagram" viewBox="0 0 32 32">
<path fill="#eff3f5" style="fill: var(--color1, #eff3f5)" d="M16.005 0c4.169 0 4.704 0.018 6.362 0.096 1.693 0.075 2.879 0.35 3.927 0.755 1.104 0.416 2.111 1.072 2.943 1.914l-0.461 0.469 0.469-0.461 0.305 0.315c0.702 0.766 1.245 1.656 1.614 2.633 0.406 1.044 0.683 2.237 0.758 3.93 0.073 1.652 0.078 2.187 0.078 6.352 0 4.169-0.019 4.703-0.091 6.354-0.075 1.695-0.35 2.881-0.755 3.93-0.864 2.235-2.632 4.003-4.867 4.867-1.045 0.406-2.238 0.681-3.932 0.755-1.651 0.073-2.184 0.091-6.354 0.091s-4.703-0.018-6.354-0.091c-1.694-0.075-2.881-0.35-3.93-0.755-1.105-0.417-2.111-1.074-2.943-1.917l0.464-0.466-0.469 0.461 0.003 0.005c-0.844-0.832-1.501-1.835-1.924-2.953-0.405-1.044-0.681-2.235-0.755-3.927-0.073-1.651-0.091-2.185-0.091-6.354 0-4.168 0.018-4.702 0.096-6.359 0.075-1.693 0.35-2.879 0.755-3.927 0.365-0.967 0.913-1.86 1.609-2.625l0.305-0.315 0.471 0.458-0.464-0.469c0.833-0.85 1.834-1.498 2.948-1.919 1.044-0.405 2.237-0.68 3.93-0.755 1.651-0.072 2.185-0.091 6.354-0.091zM16 8.422c-4.184 0-7.578 3.394-7.578 7.578s3.394 7.58 7.578 7.581c4.184 0 7.581-3.396 7.581-7.581s-3.397-7.578-7.581-7.578zM25.263 3.367c-1.859 0.001-3.366 1.508-3.367 3.367s1.508 3.369 3.367 3.37c1.86 0 3.37-1.51 3.37-3.37s-1.51-3.367-3.37-3.367z"></path>
</symbol>
<symbol id="icon-phone" viewBox="0 0 32 32">
<path d="M3.214 0.001c-0.446 0.001-0.888 0.092-1.297 0.272s-0.775 0.443-1.076 0.772c-0.301 0.329-0.531 0.718-0.674 1.141s-0.194 0.871-0.154 1.315c0.528 4.963 2.221 9.733 4.94 13.922 2.47 3.88 5.767 7.169 9.654 9.634 4.178 2.704 8.933 4.394 13.884 4.931 0.446 0.040 0.897-0.013 1.322-0.156s0.815-0.374 1.145-0.676c0.33-0.302 0.593-0.671 0.772-1.080s0.272-0.852 0.27-1.299v-4.817c0.020-0.787-0.253-1.555-0.763-2.156s-1.223-0.995-2.005-1.105c-1.545-0.203-3.062-0.579-4.522-1.123-0.576-0.216-1.202-0.264-1.803-0.136s-1.154 0.428-1.592 0.859l-2.042 2.038c-4.028-2.286-7.364-5.614-9.654-9.634l2.045-2.040c0.432-0.436 0.729-0.987 0.857-1.587s0.083-1.227-0.134-1.801c-0.545-1.457-0.924-2.97-1.127-4.511-0.109-0.772-0.495-1.478-1.087-1.987s-1.349-0.782-2.129-0.775h-4.828z"></path>
</symbol>
<symbol id="icon-Pin" viewBox="0 0 32 32">
<path d="M26.501 8.841c2.443 2.284 3.233 5.409 1.763 6.981s-4.641 0.994-7.084-1.29c-2.443-2.284-3.233-5.409-1.763-6.981s4.641-0.994 7.084 1.29z"></path>
<path d="M9.498 14.359c1.226-1.311 3.394-1.45 5.682-0.585l-2.193 1.812c-1.188 1.271-0.549 3.799 1.427 5.645s4.54 2.313 5.728 1.042l1.932-2.041c1.006 2.217 1.009 4.379-0.212 5.686-1.956 2.091-6.309 1.2-9.722-1.992s-4.596-7.474-2.641-9.566z"></path>
<path d="M15.318 20.386c1.578 1.476 3.591 1.888 4.495 0.921 0.616-0.858 2.131-2.949 3.261-4.455-2.635-1.506-4.235-3.451-4.706-4.235l-4.271 3.347c-0.904 0.967-0.357 2.947 1.221 4.423z"></path>
<path d="M11.779 25.322c-0.471-0.314-1.506-1.129-1.882-1.882l-2.824 3.294-0.502 0.753c-0.557 0.835 0.406 1.846 1.267 1.329l1.117-0.67 2.824-2.824z"></path>
</symbol>
<symbol id="icon-tik-tok" viewBox="0 0 27 32">
<path fill="#eff3f5" style="fill: var(--color1, #eff3f5)" d="M23.346 6.844c-0.208-0.112-0.41-0.234-0.606-0.367-0.57-0.392-1.092-0.853-1.556-1.375-1.16-1.381-1.593-2.781-1.753-3.762h0.006c-0.133-0.814-0.078-1.341-0.070-1.341h-5.284v21.251c0 0.285 0 0.567-0.012 0.846 0 0.035-0.003 0.067-0.005 0.104 0 0.015 0 0.031-0.003 0.047 0 0.004 0 0.008 0 0.012-0.056 0.762-0.291 1.499-0.684 2.145s-0.934 1.181-1.573 1.559c-0.666 0.394-1.42 0.601-2.186 0.6-2.462 0-4.457-2.088-4.457-4.666s1.995-4.666 4.457-4.666c0.466-0 0.929 0.076 1.372 0.226l0.006-5.596c-1.345-0.181-2.712-0.070-4.013 0.327s-2.51 1.068-3.55 1.975c-0.911 0.823-1.676 1.805-2.263 2.902-0.223 0.4-1.065 2.007-1.167 4.616-0.064 1.481 0.363 3.015 0.567 3.648v0.013c0.128 0.373 0.625 1.647 1.434 2.721 0.653 0.862 1.424 1.618 2.289 2.246v-0.013l0.013 0.013c2.558 1.808 5.394 1.689 5.394 1.689 0.491-0.021 2.136 0 4.003-0.921 2.072-1.021 3.251-2.541 3.251-2.541 0.753-0.909 1.353-1.944 1.772-3.062 0.478-1.307 0.638-2.875 0.638-3.502v-11.274c0.064 0.040 0.918 0.627 0.918 0.627s1.23 0.82 3.149 1.354c1.377 0.38 3.232 0.46 3.232 0.46v-5.456c-0.65 0.073-1.97-0.14-3.321-0.841z"></path>
</symbol>
<symbol id="icon-Union" viewBox="0 0 146 32">
<path d="M129.778 0c8.837 0 16 7.163 16 16s-7.163 16-16 16c-3.785 0-7.263-1.315-10.002-3.512-5.57-4.469-11.301-10.71-18.442-10.71s-12.873 6.241-18.442 10.71c-2.739 2.197-6.217 3.512-10.002 3.512s-7.263-1.315-10.002-3.512c-5.57-4.469-11.301-10.71-18.442-10.71s-12.873 6.241-18.442 10.71c-2.739 2.197-6.217 3.512-10.002 3.512-8.837 0-16-7.163-16-16s7.163-16 16-16c3.785 0 7.263 1.315 10.002 3.512 5.57 4.469 11.301 10.71 18.442 10.71s12.873-6.241 18.442-10.71c2.739-2.197 6.217-3.512 10.002-3.512s7.263 1.315 10.002 3.512c5.57 4.469 11.301 10.71 18.442 10.71s12.873-6.241 18.442-10.71c2.739-2.197 6.217-3.512 10.002-3.512z"></path>
</symbol>
<symbol id="icon-youtube" viewBox="0 0 38 32">
<path fill="#eff3f5" style="fill: var(--color1, #eff3f5)" d="M19.206 1.6c0.077 0 7.742 0.050 12.819 0.416l0.069 0.006c0.057 0.008 0.121 0.017 0.191 0.025 0.842 0.095 2.593 0.291 4.137 1.919 1.337 1.385 1.661 4.11 1.694 4.416l0.003 0.016c0.012 0.128 0.281 3.159 0.281 6.203v2.847c0 3.043-0.27 6.076-0.281 6.203l-0.006 0.038c-0.038 0.3-0.405 2.965-1.678 4.334-1.527 1.663-3.25 1.844-4.078 1.931-0.079 0.008-0.152 0.017-0.216 0.025l-0.068 0.006c-5.077 0.365-12.742 0.415-12.819 0.416h-0.022c-0.39-0.006-9.581-0.143-12.512-0.419l-0.088-0.012c-0.092-0.016-0.228-0.029-0.384-0.047-0.988-0.112-2.823-0.321-4.275-1.894-1.329-1.384-1.655-4.054-1.688-4.359l-0.003-0.019c-0.011-0.128-0.281-3.16-0.281-6.203v-2.847c0-3.044 0.27-6.076 0.281-6.203l0.006-0.037c0.038-0.299 0.405-2.965 1.678-4.334 1.549-1.687 3.283-1.886 4.116-1.981 0.065-0.007 0.124-0.015 0.178-0.022l0.069-0.006c5.122-0.365 12.789-0.415 12.866-0.416h0.012zM16.391 10.259c-0.514-0.257-1.121-0.248-1.625 0.025s-0.803 0.754-0.803 1.287v8.856c0 0.532 0.3 1.014 0.8 1.288 0.261 0.143 0.55 0.216 0.841 0.216 0.266 0 0.533-0.061 0.778-0.181l8.934-4.391c0.53-0.261 0.863-0.762 0.866-1.312s-0.325-1.057-0.853-1.322l-8.938-4.466z"></path>
</symbol>
</defs>
</svg>
