<svg width="10" height="12" viewBox="0 0 10 12" fill="none" xmlns="http://www.w3.org/2000/svg">
<path d="M8.75469 2.56637C8.67682 2.52451 8.60101 2.47862 8.52755 2.42888C8.31393 2.282 8.11807 2.10893 7.94419 1.9134C7.50914 1.39568 7.34666 0.870457 7.28681 0.502725H7.28921C7.23922 0.19749 7.25989 0 7.26301 0H5.28148V7.9691C5.28148 8.0761 5.28148 8.18184 5.27715 8.28634C5.27715 8.29934 5.27595 8.31134 5.27523 8.32533C5.27523 8.33108 5.27523 8.33708 5.27403 8.34308C5.27403 8.34458 5.27403 8.34608 5.27403 8.34758C5.25314 8.63351 5.16501 8.90972 5.01739 9.15192C4.86978 9.39411 4.6672 9.59486 4.42747 9.73651C4.17763 9.88435 3.89505 9.96189 3.6076 9.9615C2.68438 9.9615 1.93613 9.17854 1.93613 8.21159C1.93613 7.24464 2.68438 6.46168 3.6076 6.46168C3.78237 6.46151 3.95605 6.49011 4.12222 6.54642L4.12462 4.44803C3.62019 4.38026 3.10773 4.42195 2.61957 4.57048C2.13141 4.71901 1.67814 4.97115 1.28836 5.31099C0.946824 5.61962 0.659692 5.98788 0.439887 6.39918C0.356242 6.54917 0.0406479 7.15189 0.0024305 8.13009C-0.0216056 8.68532 0.138715 9.26054 0.21515 9.49828V9.50328C0.263222 9.64327 0.449502 10.121 0.753077 10.5237C0.99787 10.8468 1.28708 11.1306 1.61141 11.3659V11.3609L1.61621 11.3659C2.57549 12.0439 3.63909 11.9994 3.63909 11.9994C3.82321 11.9917 4.43997 11.9994 5.14038 11.6542C5.91723 11.2714 6.35949 10.7012 6.35949 10.7012C6.64204 10.3605 6.8667 9.97222 7.02385 9.55302C7.20316 9.0628 7.26301 8.47483 7.26301 8.23984V4.01205C7.28705 4.02705 7.60721 4.24729 7.60721 4.24729C7.60721 4.24729 8.06846 4.55477 8.7881 4.75501C9.3044 4.89751 10 4.9275 10 4.9275V2.88161C9.75627 2.9091 9.26137 2.82911 8.75469 2.56637Z" fill="#EFF3F5"/>
</svg>
