<svg width="41" height="9" viewBox="0 0 41 9" fill="none" xmlns="http://www.w3.org/2000/svg">
<path d="M36.5 0C38.9853 0 41 2.01472 41 4.5C41 6.98528 38.9853 9 36.5 9C35.4354 9 34.4573 8.63028 33.6869 8.01223C32.1204 6.7554 30.5084 5 28.5 5C26.4916 5 24.8796 6.7554 23.3131 8.01223C22.5427 8.63028 21.5646 9 20.5 9C19.4354 9 18.4573 8.63028 17.6869 8.01223C16.1204 6.7554 14.5084 5 12.5 5C10.4916 5 8.87961 6.7554 7.31306 8.01223C6.54272 8.63028 5.56462 9 4.5 9C2.01472 9 0 6.98528 0 4.5C0 2.01472 2.01472 0 4.5 0C5.56462 0 6.54271 0.369723 7.31306 0.98777C8.87961 2.2446 10.4916 4 12.5 4C14.5084 4 16.1204 2.2446 17.6869 0.987771C18.4573 0.369723 19.4354 0 20.5 0C21.5646 0 22.5427 0.369723 23.3131 0.98777C24.8796 2.2446 26.4916 4 28.5 4C30.5084 4 32.1204 2.2446 33.6869 0.987771C34.4573 0.369723 35.4354 0 36.5 0Z" fill="#0A0F13"/>
</svg>
