<svg width="12" height="10" viewBox="0 0 12 10" fill="none" xmlns="http://www.w3.org/2000/svg">
<path d="M6.00195 0.5C6.02594 0.500091 8.4214 0.515687 10.0078 0.629883L10.0293 0.631836C10.0471 0.634193 10.0671 0.637201 10.0889 0.639648C10.352 0.669289 10.8992 0.730677 11.3818 1.23926C11.7995 1.67196 11.901 2.5235 11.9111 2.61914L11.9121 2.62402C11.9157 2.66391 11.9999 3.61136 12 4.5625V5.45215C12 6.40318 11.9157 7.35074 11.9121 7.39062L11.9102 7.40234C11.8984 7.49609 11.7835 8.32875 11.3857 8.75684C10.9085 9.27664 10.3701 9.33315 10.1113 9.36035C10.0867 9.36288 10.0639 9.36554 10.0439 9.36816L10.0225 9.37012C8.43605 9.48432 6.04059 9.49991 6.0166 9.5H6.00977C5.888 9.49828 3.01559 9.45545 2.09961 9.36914L2.07227 9.36523C2.04361 9.36025 2.00095 9.35612 1.95215 9.35059C1.64346 9.3156 1.06994 9.25018 0.616211 8.75879C0.200839 8.32629 0.0991805 7.4918 0.0888672 7.39648L0.0878906 7.39062C0.0843206 7.35074 2.42154e-05 6.40318 0 5.45215V4.5625C4.91574e-06 3.61136 0.0843202 2.66382 0.0878906 2.62402L0.0898438 2.6123C0.101654 2.51875 0.216464 1.68589 0.614258 1.25781C1.09837 0.730518 1.64021 0.668406 1.90039 0.638672C1.9206 0.636339 1.93917 0.634082 1.95605 0.631836L1.97754 0.629883C3.57823 0.515669 5.97406 0.500091 5.99805 0.5H6.00195ZM5.12207 3.20605C4.96153 3.12583 4.77161 3.12869 4.61426 3.21387C4.45721 3.29911 4.36345 3.44935 4.36328 3.61621V6.38379C4.36328 6.5502 4.45687 6.70077 4.61328 6.78613C4.69493 6.83068 4.78527 6.85351 4.87598 6.85352C4.9591 6.85352 5.04248 6.83458 5.11914 6.79688L7.91113 5.4248C8.07675 5.34339 8.18069 5.18652 8.18164 5.01465C8.18231 4.84274 8.08009 4.68425 7.91504 4.60156L5.12207 3.20605Z" fill="#EFF3F5"/>
</svg>
